<svg
  width="1194"
  height="1194"
  viewBox="0 0 1194 1194"
  fill="none"
  xmlns="http://www.w3.org/2000/svg"
>
  <g id="process_system-diagram">
    <circle id="circle" cx="562" cy="583" r="149.75" stroke="#5F5F5F" stroke-width="0.5" />
    <g id="labels">
      <text
        id="html"
        transform="translate(231 603) rotate(180)"
        fill="white"
        xml:space="preserve"
        style="white-space: pre"
        font-family="Inter"
        font-size="24"
        font-weight="600"
        letter-spacing="0em"
      >
        <tspan x="0" y="26.7273">HTML</tspan>
      </text>
      <text
        id="CSS"
        transform="translate(314.512 361.434) rotate(-135)"
        fill="white"
        xml:space="preserve"
        style="white-space: pre"
        font-family="Inter"
        font-size="24"
        font-weight="600"
        letter-spacing="0em"
      >
        <tspan x="0" y="26.7273">CSS</tspan>
      </text>
      <text
        id="value"
        transform="translate(576 915) rotate(90)"
        fill="white"
        xml:space="preserve"
        style="white-space: pre"
        font-family="Inter"
        font-size="24"
        font-weight="600"
        letter-spacing="0em"
      >
        <tspan x="0" y="26.7273">VALUE</tspan>
      </text>
      <text
        id="SEO"
        transform="translate(333.5 814.457) rotate(135)"
        fill="white"
        xml:space="preserve"
        style="white-space: pre"
        font-family="Inter"
        font-size="24"
        font-weight="600"
        letter-spacing="0em"
      >
        <tspan x="0" y="26.7273">SEO</tspan>
      </text>
      <text
        id="marketing"
        fill="white"
        xml:space="preserve"
        style="white-space: pre"
        font-family="Inter"
        font-size="24"
        font-weight="600"
        letter-spacing="0em"
      >
        <tspan x="892" y="590.727">MARKETING</tspan>
      </text>
      <text
        id="content"
        transform="translate(817.455 796) rotate(45)"
        fill="white"
        xml:space="preserve"
        style="white-space: pre"
        font-family="Inter"
        font-size="24"
        font-weight="600"
        letter-spacing="0em"
      >
        <tspan x="0" y="26.7273">CONTENT</tspan>
      </text>
      <text
        id="experience"
        transform="translate(542 250) rotate(-90)"
        fill="white"
        xml:space="preserve"
        style="white-space: pre"
        font-family="Inter"
        font-size="24"
        font-weight="600"
        letter-spacing="0em"
      >
        <tspan x="0" y="26.7273">EXPERIENCE</tspan>
      </text>
      <text
        id="ui"
        transform="translate(792 345.676) rotate(-45)"
        fill="white"
        xml:space="preserve"
        style="white-space: pre"
        font-family="Inter"
        font-size="24"
        font-weight="600"
        letter-spacing="0em"
      >
        <tspan x="0" y="26.7273">UI</tspan>
      </text>
    </g>
    <g id="lines">
      <path
        id="line"
        d="M335.062 795.598L788.806 371.125"
        stroke="url(#paint0_linear_1127_351)"
        stroke-opacity="0.2"
      />
      <path
        id="line_2"
        d="M779.082 784.258L346.406 382.37"
        stroke="url(#paint1_linear_1127_351)"
        stroke-opacity="0.2"
      />
      <path
        id="line_3"
        d="M562 870L562 295"
        stroke="url(#paint2_linear_1127_351)"
        stroke-opacity="0.2"
      />
      <path
        id="line_4"
        d="M857 583L267 583"
        stroke="url(#paint3_linear_1127_351)"
        stroke-opacity="0.2"
      />
    </g>
    <g id="small-circles">
      <circle
        id="circle-small"
        cx="4.5"
        cy="4.5"
        r="4.5"
        transform="matrix(1 0 0 -1 557 737)"
        fill="white"
      />
      <circle
        id="circle-small_2"
        cx="4.5"
        cy="4.5"
        r="4.5"
        transform="matrix(1 0 0 -1 667 689)"
        fill="white"
      />
      <circle
        id="circle-small_3"
        cx="4.5"
        cy="4.5"
        r="4.5"
        transform="matrix(1 0 0 -1 448 690)"
        fill="white"
      />
      <circle
        id="circle-small_4"
        cx="4.5"
        cy="4.5"
        r="4.5"
        transform="matrix(1 0 0 -1 408 587)"
        fill="white"
      />
      <circle
        id="circle-small_5"
        cx="4.5"
        cy="4.5"
        r="4.5"
        transform="matrix(1 0 0 -1 448 485)"
        fill="white"
      />
      <circle
        id="circle-small_6"
        cx="4.5"
        cy="4.5"
        r="4.5"
        transform="matrix(1 0 0 -1 558 437)"
        fill="white"
      />
      <circle
        id="circle-small_7"
        cx="4.5"
        cy="4.5"
        r="4.5"
        transform="matrix(1 0 0 -1 667 485)"
        fill="white"
      />
      <circle
        id="circle-small_8"
        cx="4.5"
        cy="4.5"
        r="4.5"
        transform="matrix(1 0 0 -1 707 587)"
        fill="white"
      />
    </g>
    <g id="circle-large">
      <circle
        id="circle_2"
        cx="21.5"
        cy="21.5"
        r="21.5"
        transform="matrix(-1 0 0 1 584 309)"
        fill="white"
      />
      <g id="plus">
        <path id="Vector 33" d="M557 331H569" stroke="black" />
        <path id="Vector 34" d="M563 337L563 325" stroke="black" />
      </g>
    </g>
    <g id="circle-large_2">
      <circle
        id="circle_3"
        cx="21.5"
        cy="21.5"
        r="21.5"
        transform="matrix(-1 0 0 1 835 562)"
        fill="white"
      />
      <g id="plus_2">
        <path id="Vector 33_2" d="M808 584H820" stroke="black" />
        <path id="Vector 34_2" d="M814 590L814 578" stroke="black" />
      </g>
    </g>
    <g id="circle-large_3">
      <circle
        id="circle_4"
        cx="21.5"
        cy="21.5"
        r="21.5"
        transform="matrix(-1 0 0 1 332 562)"
        fill="white"
      />
      <g id="plus_3">
        <path id="Vector 33_3" d="M305 584H317" stroke="black" />
        <path id="Vector 34_3" d="M311 590L311 578" stroke="black" />
      </g>
    </g>
    <g id="circle-large_4">
      <circle
        id="circle_5"
        cx="21.5"
        cy="21.5"
        r="21.5"
        transform="matrix(-1 0 0 1 584 813)"
        fill="white"
      />
      <g id="plus_4">
        <path id="Vector 33_4" d="M557 835H569" stroke="black" />
        <path id="Vector 34_4" d="M563 841L563 829" stroke="black" />
      </g>
    </g>
    <g id="circle-large_5">
      <circle
        id="circle_6"
        cx="21.5"
        cy="21.5"
        r="21.5"
        transform="matrix(-0.707107 0.707107 0.707107 0.707107 745.205 381.797)"
        fill="white"
      />
      <g id="plus_5">
        <path id="Vector 33_5" d="M741.668 416.445L750.153 407.96" stroke="black" />
        <path id="Vector 34_5" d="M750.154 416.445L741.669 407.96" stroke="black" />
      </g>
    </g>
    <g id="circle-large_6">
      <circle
        id="circle_7"
        cx="21.5"
        cy="21.5"
        r="21.5"
        transform="matrix(0.707107 -0.707107 -0.707107 -0.707107 377.203 442.609)"
        fill="white"
      />
      <g id="plus_6">
        <path id="Vector 33_6" d="M380.74 407.961L372.255 416.446" stroke="black" />
        <path id="Vector 34_6" d="M372.254 407.961L380.739 416.446" stroke="black" />
      </g>
    </g>
    <g id="circle-large_7">
      <circle
        id="circle_8"
        cx="21.5"
        cy="21.5"
        r="21.5"
        transform="matrix(-0.707107 0.707107 0.707107 0.707107 748.205 720.797)"
        fill="white"
      />
      <g id="plus_7">
        <path id="Vector 33_7" d="M744.668 755.445L753.153 746.96" stroke="black" />
        <path id="Vector 34_7" d="M753.154 755.445L744.669 746.96" stroke="black" />
      </g>
    </g>
    <g id="circle-large_8">
      <circle
        id="circle_9"
        cx="21.5"
        cy="21.5"
        r="21.5"
        transform="matrix(0.707107 -0.707107 -0.707107 -0.707107 373.203 781.609)"
        fill="white"
      />
      <g id="plus_8">
        <path id="Vector 33_8" d="M376.74 746.961L368.255 755.446" stroke="black" />
        <path id="Vector 34_8" d="M368.254 746.961L376.739 755.446" stroke="black" />
      </g>
    </g>
  </g>
  <defs>
    <linearGradient
      id="paint0_linear_1127_351"
      x1="792.41"
      y1="377.392"
      x2="343.107"
      y2="796.878"
      gradientUnits="userSpaceOnUse"
    >
      <stop stop-color="white" stop-opacity="0" />
      <stop offset="0.523958" stop-color="white" />
      <stop offset="1" stop-color="white" stop-opacity="0" />
    </linearGradient>
    <linearGradient
      id="paint1_linear_1127_351"
      x1="352.345"
      y1="378.279"
      x2="780.017"
      y2="776.269"
      gradientUnits="userSpaceOnUse"
    >
      <stop stop-color="white" stop-opacity="0" />
      <stop offset="0.523958" stop-color="white" />
      <stop offset="1" stop-color="white" stop-opacity="0" />
    </linearGradient>
    <linearGradient
      id="paint2_linear_1127_351"
      x1="569.039"
      y1="296.527"
      x2="568.518"
      y2="865.373"
      gradientUnits="userSpaceOnUse"
    >
      <stop stop-color="white" stop-opacity="0" />
      <stop offset="0.523958" stop-color="white" />
      <stop offset="1" stop-color="white" stop-opacity="0" />
    </linearGradient>
    <linearGradient
      id="paint3_linear_1127_351"
      x1="268.567"
      y1="575.961"
      x2="852.252"
      y2="576.509"
      gradientUnits="userSpaceOnUse"
    >
      <stop stop-color="white" stop-opacity="0" />
      <stop offset="0.523958" stop-color="white" />
      <stop offset="1" stop-color="white" stop-opacity="0" />
    </linearGradient>
  </defs>
</svg>
